<mxfile host="app.diagrams.net" modified="2023-12-01T15:45:49.757Z" agent="Mozilla/5.0 (Macintosh; Intel Mac OS X 10_15_7) AppleWebKit/537.36 (KHTML, like Gecko) Chrome/119.0.0.0 Safari/537.36" etag="EU2Uecq-xRBie_5Y6iP2" version="22.1.5" type="github" pages="2">
  <diagram name="Page-1" id="YDVmIrg4na8IhVehxOfg">
    <mxGraphModel dx="880" dy="532" grid="1" gridSize="10" guides="1" tooltips="1" connect="1" arrows="1" fold="1" page="1" pageScale="1" pageWidth="850" pageHeight="1100" math="0" shadow="0">
      <root>
        <mxCell id="0" />
        <mxCell id="1" parent="0" />
        <mxCell id="vJNQRdf9ClBG_4oOkR8q-1" value="registro usuario" style="ellipse;whiteSpace=wrap;html=1;" vertex="1" parent="1">
          <mxGeometry x="480" y="110" width="120" height="80" as="geometry" />
        </mxCell>
        <mxCell id="vJNQRdf9ClBG_4oOkR8q-2" value="listado de usuarios" style="ellipse;whiteSpace=wrap;html=1;" vertex="1" parent="1">
          <mxGeometry x="480" y="300" width="120" height="80" as="geometry" />
        </mxCell>
        <mxCell id="vJNQRdf9ClBG_4oOkR8q-3" value="Usuario" style="shape=umlActor;verticalLabelPosition=bottom;verticalAlign=top;html=1;outlineConnect=0;" vertex="1" parent="1">
          <mxGeometry x="290" y="210" width="100" height="80" as="geometry" />
        </mxCell>
        <mxCell id="vJNQRdf9ClBG_4oOkR8q-6" value="" style="endArrow=classic;html=1;rounded=0;entryX=0.1;entryY=0.838;entryDx=0;entryDy=0;entryPerimeter=0;" edge="1" parent="1" target="vJNQRdf9ClBG_4oOkR8q-1">
          <mxGeometry width="50" height="50" relative="1" as="geometry">
            <mxPoint x="400" y="210" as="sourcePoint" />
            <mxPoint x="450" y="250" as="targetPoint" />
          </mxGeometry>
        </mxCell>
        <mxCell id="vJNQRdf9ClBG_4oOkR8q-7" value="" style="endArrow=classic;html=1;rounded=0;entryX=0;entryY=0.5;entryDx=0;entryDy=0;" edge="1" parent="1" target="vJNQRdf9ClBG_4oOkR8q-2">
          <mxGeometry width="50" height="50" relative="1" as="geometry">
            <mxPoint x="400" y="300" as="sourcePoint" />
            <mxPoint x="450" y="250" as="targetPoint" />
          </mxGeometry>
        </mxCell>
        <mxCell id="vJNQRdf9ClBG_4oOkR8q-11" value="" style="endArrow=none;html=1;rounded=0;" edge="1" parent="1">
          <mxGeometry width="50" height="50" relative="1" as="geometry">
            <mxPoint x="200" y="80" as="sourcePoint" />
            <mxPoint x="650" y="80" as="targetPoint" />
          </mxGeometry>
        </mxCell>
        <mxCell id="vJNQRdf9ClBG_4oOkR8q-12" value="" style="endArrow=none;html=1;rounded=0;" edge="1" parent="1">
          <mxGeometry width="50" height="50" relative="1" as="geometry">
            <mxPoint x="200" y="400" as="sourcePoint" />
            <mxPoint x="200" y="80" as="targetPoint" />
          </mxGeometry>
        </mxCell>
        <mxCell id="vJNQRdf9ClBG_4oOkR8q-13" value="" style="endArrow=none;html=1;rounded=0;" edge="1" parent="1">
          <mxGeometry width="50" height="50" relative="1" as="geometry">
            <mxPoint x="200" y="400" as="sourcePoint" />
            <mxPoint x="650" y="400" as="targetPoint" />
          </mxGeometry>
        </mxCell>
        <mxCell id="vJNQRdf9ClBG_4oOkR8q-14" value="" style="endArrow=none;html=1;rounded=0;" edge="1" parent="1">
          <mxGeometry width="50" height="50" relative="1" as="geometry">
            <mxPoint x="650" y="400" as="sourcePoint" />
            <mxPoint x="650" y="80" as="targetPoint" />
          </mxGeometry>
        </mxCell>
      </root>
    </mxGraphModel>
  </diagram>
  <diagram id="_7ErC7jxJLhWnltEtK82" name="Page-2">
    <mxGraphModel dx="880" dy="532" grid="1" gridSize="10" guides="1" tooltips="1" connect="1" arrows="1" fold="1" page="1" pageScale="1" pageWidth="850" pageHeight="1100" math="0" shadow="0">
      <root>
        <mxCell id="0" />
        <mxCell id="1" parent="0" />
        <mxCell id="lY57CFRak0ijERhOjDeR-1" value="" style="html=1;points=[[0,0,0,0,5],[0,1,0,0,-5],[1,0,0,0,5],[1,1,0,0,-5]];perimeter=orthogonalPerimeter;outlineConnect=0;targetShapes=umlLifeline;portConstraint=eastwest;newEdgeStyle={&quot;curved&quot;:0,&quot;rounded&quot;:0};" vertex="1" parent="1">
          <mxGeometry x="380" y="220" width="20" height="310" as="geometry" />
        </mxCell>
        <mxCell id="lY57CFRak0ijERhOjDeR-2" value="POST&amp;nbsp;" style="html=1;verticalAlign=bottom;endArrow=block;curved=0;rounded=0;entryX=0;entryY=0;entryDx=0;entryDy=5;" edge="1" parent="1">
          <mxGeometry relative="1" as="geometry">
            <mxPoint x="220" y="250.00000000000023" as="sourcePoint" />
            <mxPoint x="380" y="250.00000000000023" as="targetPoint" />
          </mxGeometry>
        </mxCell>
        <mxCell id="lY57CFRak0ijERhOjDeR-3" value="201 CREATED" style="html=1;verticalAlign=bottom;endArrow=open;dashed=1;endSize=8;curved=0;rounded=0;entryX=1.2;entryY=0.367;entryDx=0;entryDy=0;entryPerimeter=0;" edge="1" source="lY57CFRak0ijERhOjDeR-1" parent="1" target="lY57CFRak0ijERhOjDeR-7">
          <mxGeometry relative="1" as="geometry">
            <mxPoint x="310" y="315" as="targetPoint" />
          </mxGeometry>
        </mxCell>
        <mxCell id="lY57CFRak0ijERhOjDeR-4" value="&lt;pre style=&quot;background-color:#2b2b2b;color:#a9b7c6;font-family:&#39;JetBrains Mono&#39;,monospace;font-size:9.8pt;&quot;&gt;&lt;br&gt;&lt;/pre&gt;" style="text;html=1;strokeColor=none;fillColor=none;align=center;verticalAlign=middle;whiteSpace=wrap;rounded=0;" vertex="1" parent="1">
          <mxGeometry x="390" y="210" width="60" height="30" as="geometry" />
        </mxCell>
        <mxCell id="lY57CFRak0ijERhOjDeR-6" value="regresa token" style="shape=note;whiteSpace=wrap;html=1;backgroundOutline=1;darkOpacity=0.05;" vertex="1" parent="1">
          <mxGeometry x="320" y="330" width="40" height="50" as="geometry" />
        </mxCell>
        <mxCell id="lY57CFRak0ijERhOjDeR-7" value="" style="html=1;points=[[0,0,0,0,5],[0,1,0,0,-5],[1,0,0,0,5],[1,1,0,0,-5]];perimeter=orthogonalPerimeter;outlineConnect=0;targetShapes=umlLifeline;portConstraint=eastwest;newEdgeStyle={&quot;curved&quot;:0,&quot;rounded&quot;:0};" vertex="1" parent="1">
          <mxGeometry x="200" y="200" width="20" height="330" as="geometry" />
        </mxCell>
        <mxCell id="lY57CFRak0ijERhOjDeR-8" value="usuario" style="rounded=1;whiteSpace=wrap;html=1;" vertex="1" parent="1">
          <mxGeometry x="165" y="140" width="90" height="40" as="geometry" />
        </mxCell>
        <mxCell id="lY57CFRak0ijERhOjDeR-9" value="/api/users/" style="rounded=1;whiteSpace=wrap;html=1;" vertex="1" parent="1">
          <mxGeometry x="360" y="170" width="90" height="40" as="geometry" />
        </mxCell>
        <mxCell id="lY57CFRak0ijERhOjDeR-10" value="GET" style="html=1;verticalAlign=bottom;endArrow=block;curved=0;rounded=0;entryX=0;entryY=0;entryDx=0;entryDy=5;" edge="1" parent="1">
          <mxGeometry relative="1" as="geometry">
            <mxPoint x="220" y="420" as="sourcePoint" />
            <mxPoint x="380" y="420" as="targetPoint" />
          </mxGeometry>
        </mxCell>
        <mxCell id="lY57CFRak0ijERhOjDeR-11" value="agrega token en header" style="shape=note;whiteSpace=wrap;html=1;backgroundOutline=1;darkOpacity=0.05;" vertex="1" parent="1">
          <mxGeometry x="280" y="420" width="40" height="50" as="geometry" />
        </mxCell>
        <mxCell id="lY57CFRak0ijERhOjDeR-12" value="200 OK" style="html=1;verticalAlign=bottom;endArrow=open;dashed=1;endSize=8;curved=0;rounded=0;entryX=1.2;entryY=0.367;entryDx=0;entryDy=0;entryPerimeter=0;" edge="1" parent="1">
          <mxGeometry relative="1" as="geometry">
            <mxPoint x="220" y="500" as="targetPoint" />
            <mxPoint x="376" y="500" as="sourcePoint" />
          </mxGeometry>
        </mxCell>
      </root>
    </mxGraphModel>
  </diagram>
</mxfile>
